<svg xmlns="http://www.w3.org/2000/svg" viewBox="50 70 500 105"><defs><style>.cls-1{fill:none;}.cls-2{fill:#fff;}</style></defs><g id="Layer_2" data-name="Layer 2"><g id="SPONSORS"><rect class="cls-1" width="596.51" height="243.7"/><path class="cls-2" d="M53.85,74.43h51.88l.09,14.77H68.63v10h37.19v39.54h-52V124l37.19,0V114H53.85Z"/><path class="cls-2" d="M114.4,74h14.86V99h22.6V74h14.86v64.78H151.86v-25h-22.6v25H114.4Z"/><path class="cls-2" d="M175.17,74.43h52v64.35h-52ZM189.94,89.2,190,124h22.38V89.2Z"/><path class="cls-2" d="M235.76,138.87V74.43h14.78V124.1h10V74.43h14.81V124.1h10V74.47h.05v0h14.72V124.1h4l0,23.49H289.45v-8.72Z"/><path class="cls-2" d="M309.13,74.43h52V89.2H324l-.08,34.8H361.1v14.78h-52Z"/><path class="cls-2" d="M369.69,74.43h52v64.35H406.88V126.39H384.46v12.39H369.69ZM384.46,89.2v22.42h22.42V89.2Z"/><path class="cls-2" d="M430.45,74.43h51.89l.08,14.77H445.23v10h37.19v39.54h-52V124l37.2,0V114h-37.2Z"/><path class="cls-2" d="M491,74.43h52V89.2h-37.2v10H530.6V114H506.38l-.08,10H543v14.78H491Z"/><path class="cls-2" d="M288.92,153.45h2.42l4.17,4.12,4.13-4.12H302v16.21H298.3V161l-2.38,2.38H295L292.65,161v8.63h-3.73Z"/><path class="cls-2" d="M304.19,153.45h3.73V166h5.65V153.45h3.72v16.24H304.19Z"/><path class="cls-2" d="M319.52,153.45h13.07l0,3.72h-9.38v2.53h9.38v10H319.52v-3.72h9.37v-2.54h-9.37Z"/><path class="cls-2" d="M334.78,153.45h3.72v16.24h-3.72Z"/><path class="cls-2" d="M340.93,153.45H354v3.72h-9.36l0,8.77H354v3.72H340.93Z"/><path class="cls-2" d="M360.4,153.45h13.1l0,6.81-1.23,1.23,1.2,1.23v6.94H360.4Zm3.72,3.72v2.53h5.65v-2.53Zm0,6.24v2.53h5.65v-2.53Z"/><path class="cls-2" d="M375.65,153.45h3.73V166H385V153.45h3.72v16.24H375.65Z"/><path class="cls-2" d="M391,153.45h13.08l0,3.72h-9.38v2.53h9.38v10H391v-3.72h9.37v-2.54H391Z"/><path class="cls-2" d="M406.23,153.45H410v16.24h-3.73Z"/><path class="cls-2" d="M412.38,153.45h3.73v1.63l5.65,5.7v-7.33h3.72v16.21h-3.72v-3.11l-5.65-5.7v8.81h-3.73Z"/><path class="cls-2" d="M427.67,153.45h13.1v3.72h-9.38v2.53h6.25v3.71h-6.1l0,2.53h9.25v3.72h-13.1Z"/><path class="cls-2" d="M443,153.45h13.07l0,3.72h-9.38v2.53h9.38v10H443v-3.72h9.37v-2.54H443Z"/><path class="cls-2" d="M458.26,153.45h13.08l0,3.72H462v2.53h9.38v10h-13.1v-3.72h9.37v-2.54h-9.37Z"/><path class="cls-2" d="M477.72,153.45h13.1v3.72h-9.37v8.77h5.65V159.7h3.72v10h-13.1Z"/><path class="cls-2" d="M493,153.45h3.72V166h5.66V153.45h3.71v16.24H493Z"/><path class="cls-2" d="M508.26,153.45H512v16.24h-3.73Z"/><path class="cls-2" d="M514.42,153.45h10.12l3,3v10.26l-3,3H514.42Zm3.73,3.72v8.77h5.64v-8.77Z"/><path class="cls-2" d="M529.88,153.48H543v3.73h-9.37v2.53h6.25v3.71h-6.11V166H543v3.72h-13.1Z"/><path class="cls-2" d="M104.32,153.37H108v16.18h-3.71Z"/><path class="cls-2" d="M110.44,153.37h3.72V155l5.63,5.67v-7.3h3.71v16.16h-3.71v-3.11l-5.63-5.67v8.78h-3.72Z"/><path class="cls-2" d="M125.64,153.37h13v3.71h-4.6v12.45h-3.7V157.08h-4.75Z"/><path class="cls-2" d="M140.89,153.37h13.05v3.71H144.6v2.52h6.23v3.7h-6.08l0,2.52h9.21v3.71H140.89Z"/><path class="cls-2" d="M156.13,153.37h13.05v9.93h-4l4,4v2.22h-3.71l-5.63-5.67v5.67h-3.71Zm3.71,3.71v2.52h5.63v-2.52Z"/><path class="cls-2" d="M171.34,153.37h3.72V155l5.63,5.67v-7.3h3.71v16.16h-3.71v-3.11l-5.63-5.67v8.78h-3.72Z"/><path class="cls-2" d="M186.58,153.37h13v16.16h-3.71v-3.11h-5.63v3.11h-3.71Zm3.71,3.71v5.63h5.63v-5.63Z"/><path class="cls-2" d="M201.8,153.37h13v3.71h-4.6v12.45h-3.69V157.08H201.8Z"/><path class="cls-2" d="M217,153.37h3.72v16.18H217Z"/><path class="cls-2" d="M223.19,153.37h13.05v16.16H223.19Zm3.71,3.71v8.74h5.62v-8.74Z"/><path class="cls-2" d="M238.39,153.37h3.7V155l5.64,5.67v-7.3h3.71v16.16h-3.71v-3.11l-5.64-5.67v8.78h-3.7Z"/><path class="cls-2" d="M253.61,153.37h13.05v16.16H263v-3.11h-5.63v3.11h-3.71Zm3.71,3.71v5.63H263v-5.63Z"/><path class="cls-2" d="M268.87,153.37h3.7v12.48h9.35v3.7H268.87Z"/><path class="cls-2" d="M53.53,153.77H66.37v3.64H61.84v12.25H58.2V157.41H53.53Z"/><path class="cls-2" d="M68.53,153.66h3.66v6.17h5.58v-6.17h3.67v16H77.77v-6.17H72.19v6.17H68.53Z"/><path class="cls-2" d="M83.52,153.77H96.35v3.64H87.17v2.48h6.12v3.64h-6l0,2.48h9.06v3.65H83.52Z"/></g></g></svg>